# xmcd
# 
# Track frame offsets:
#     150
#     7286
#     22045
#     38915
#     59597
#     75715
#     93238
#     111958
#     128896
#     150026
#     167872
#     188426
# 
# Disc length: 2714
# 
# Revision: 1
# Processed by: cddbd v1.5.2PL0 Copyright (c) Steve Scherf et al.
# Submitted via: fre:ac v1.0.31
# 
DISCID=920a980c
DTITLE=SWING HOLIC - VOL.12
DYEAR=0
DGENRE=Jazz
TTITLE0=Ten Desires
TTITLE1=トンリンタンキー
TTITLE2=Ghost Lead Serenade
TTITLE3=Dancing Doll
TTITLE4=リジッドスリラー
TTITLE5=E.C.H.O.
TTITLE6=夢殿 -YUMEDONO-
TTITLE7=FLY BIRD
TTITLE8=夢の星空
TTITLE9=one to ten
TTITLE10=マミゾウスタイル
TTITLE11=GIRLFRIEND
EXTD=
EXTT0=
EXTT1=
EXTT2=
EXTT3=
EXTT4=
EXTT5=
EXTT6=
EXTT7=
EXTT8=
EXTT9=
EXTT10=
EXTT11=
PLAYORDER=
